<svg width="32" height="32" viewBox="0 0 32 32" fill="none" xmlns="http://www.w3.org/2000/svg">
<path d="M29.5007 23.475C28.7507 25.1375 28.3882 25.8875 27.4257 27.35C26.0757 29.4 24.1757 31.9625 21.8132 31.9875C19.7132 32.0125 19.1757 30.625 16.3382 30.6375C13.5007 30.65 12.9007 32.0125 10.8007 31.9875C8.43822 31.9625 6.63822 29.65 5.28822 27.6C1.51322 21.85 1.11322 15.1125 3.45072 11.525C5.10072 8.975 7.71322 7.4875 10.1757 7.4875C12.6757 7.4875 14.2382 8.8625 16.3132 8.8625C18.3132 8.8625 19.5382 7.4875 22.4257 7.4875C24.6132 7.4875 26.9257 8.675 28.5757 10.7375C23.1632 13.7 24.0382 21.4125 29.5007 23.475ZM20.2257 5.2C21.2757 3.85 22.0757 1.95 21.7882 0C20.0757 0.1125 18.0632 1.2125 16.9007 2.6375C15.8382 3.925 14.9632 5.8375 15.3007 7.7C17.1632 7.7625 19.1007 6.6375 20.2257 5.2Z" fill="white"/>
</svg>
