<svg width="32" height="32" viewBox="0 0 32 32" fill="none" xmlns="http://www.w3.org/2000/svg">
<g clip-path="url(#clip0_537_390)">
<path d="M14.9442 15.2555L0.132568 29.2931C0.298901 29.8263 0.597807 30.3181 1.00644 30.7308C1.41507 31.1435 1.9226 31.4662 2.49024 31.6743C3.05788 31.8824 3.6706 31.9703 4.28157 31.9313C4.89253 31.8924 5.48556 31.7276 6.01532 31.4495L22.6812 22.8634L14.9442 15.2555Z" fill="#FF1400"/>
<path d="M29.9212 12.8694L22.7143 9.13525L14.6021 15.5748L22.7473 22.8432L29.8993 19.1491C30.5329 18.849 31.0636 18.3977 31.4339 17.8443C31.8041 17.2908 31.9999 16.6562 31.9999 16.0092C31.9999 15.3623 31.8041 14.7276 31.4339 14.1742C31.0636 13.6207 30.5329 13.1694 29.8993 12.8693L29.9212 12.8694Z" fill="#FBBC04"/>
<path d="M0.132539 2.65576C0.0430628 2.95517 -0.00150308 3.26411 3.86706e-05 3.57426V28.3745C0.00092218 28.6845 0.0454469 28.9932 0.132539 29.2931L15.4519 15.615L0.132539 2.65576Z" fill="#2E7CFD"/>
<path d="M15.0546 15.9745L22.7143 9.13539L6.07057 0.50918C5.44435 0.177444 4.73214 0.00175555 4.00644 6.93488e-06C2.20557 -0.00315914 0.622318 1.07806 0.132568 2.64583L15.0546 15.9745Z" fill="#00FF44"/>
</g>
<defs>
<clipPath id="clip0_537_390">
<rect width="32" height="32" fill="white"/>
</clipPath>
</defs>
</svg>
